<?xml version="1.0" encoding="UTF-8"?>
<svg width="16px" height="16px" viewBox="0 0 16 16" version="1.1" xmlns="http://www.w3.org/2000/svg" xmlns:xlink="http://www.w3.org/1999/xlink">
    <title>database-filled</title>
    <g id="页面-1" stroke="none" stroke-width="1" fill="none" fill-rule="evenodd">
        <g id="首页" transform="translate(-385.000000, -2089.000000)" fill-rule="nonzero">
            <g id="编组-9" transform="translate(359.000000, 537.000000)">
                <g id="database-filled" transform="translate(26.000000, 1552.000000)">
                    <rect id="矩形" fill="#000000" opacity="0" x="0" y="0" width="16" height="16"></rect>
                    <path d="M13,1 L3,1 C2.7234375,1 2.5,1.2234375 2.5,1.5 L2.5,5 L13.5,5 L13.5,1.5 C13.5,1.2234375 13.2765625,1 13,1 Z M4.5,3.625 C4.1546875,3.625 3.875,3.3453125 3.875,3 C3.875,2.6546875 4.1546875,2.375 4.5,2.375 C4.8453125,2.375 5.125,2.6546875 5.125,3 C5.125,3.3453125 4.8453125,3.625 4.5,3.625 Z M2.5,14.5 C2.5,14.7765625 2.7234375,15 3,15 L13,15 C13.2765625,15 13.5,14.7765625 13.5,14.5 L13.5,11 L2.5,11 L2.5,14.5 Z M4.5,12.375 C4.8453125,12.375 5.125,12.6546875 5.125,13 C5.125,13.3453125 4.8453125,13.625 4.5,13.625 C4.1546875,13.625 3.875,13.3453125 3.875,13 C3.875,12.6546875 4.1546875,12.375 4.5,12.375 Z M2.5,10 L13.5,10 L13.5,6 L2.5,6 L2.5,10 Z M4.5,7.375 C4.8453125,7.375 5.125,7.6546875 5.125,8 C5.125,8.3453125 4.8453125,8.625 4.5,8.625 C4.1546875,8.625 3.875,8.3453125 3.875,8 C3.875,7.6546875 4.1546875,7.375 4.5,7.375 Z" id="形状" fill="#333333"></path>
                </g>
            </g>
        </g>
    </g>
</svg>