<?xml version="1.0" encoding="UTF-8"?>
<svg width="16px" height="16px" viewBox="0 0 16 16" version="1.1" xmlns="http://www.w3.org/2000/svg" xmlns:xlink="http://www.w3.org/1999/xlink">
    <title>detail-filled</title>
    <g id="页面-1" stroke="none" stroke-width="1" fill="none" fill-rule="evenodd">
        <g id="首页" transform="translate(-385.000000, -892.000000)" fill="#000000" fill-rule="nonzero">
            <g id="编组-9" transform="translate(359.000000, 537.000000)">
                <g id="detail-filled" transform="translate(26.000000, 355.000000)">
                    <rect id="矩形" opacity="0" x="0" y="0" width="16" height="16"></rect>
                    <path d="M13.75,1.75 L2.25,1.75 C1.9734375,1.75 1.75,1.9734375 1.75,2.25 L1.75,13.75 C1.75,14.0265625 1.9734375,14.25 2.25,14.25 L13.75,14.25 C14.0265625,14.25 14.25,14.0265625 14.25,13.75 L14.25,2.25 C14.25,1.9734375 14.0265625,1.75 13.75,1.75 Z M5.9375,10.875 C5.5921875,10.875 5.3125,10.5953125 5.3125,10.25 C5.3125,9.9046875 5.5921875,9.625 5.9375,9.625 C6.2828125,9.625 6.5625,9.9046875 6.5625,10.25 C6.5625,10.5953125 6.2828125,10.875 5.9375,10.875 Z M5.9375,8.625 C5.5921875,8.625 5.3125,8.3453125 5.3125,8 C5.3125,7.6546875 5.5921875,7.375 5.9375,7.375 C6.2828125,7.375 6.5625,7.6546875 6.5625,8 C6.5625,8.3453125 6.2828125,8.625 5.9375,8.625 Z M5.9375,6.375 C5.5921875,6.375 5.3125,6.0953125 5.3125,5.75 C5.3125,5.4046875 5.5921875,5.125 5.9375,5.125 C6.2828125,5.125 6.5625,5.4046875 6.5625,5.75 C6.5625,6.0953125 6.2828125,6.375 5.9375,6.375 Z M10.6875,10.625 C10.6875,10.69375 10.63125,10.75 10.5625,10.75 L7.6875,10.75 C7.61875,10.75 7.5625,10.69375 7.5625,10.625 L7.5625,9.875 C7.5625,9.80625 7.61875,9.75 7.6875,9.75 L10.5625,9.75 C10.63125,9.75 10.6875,9.80625 10.6875,9.875 L10.6875,10.625 Z M10.6875,8.375 C10.6875,8.44375 10.63125,8.5 10.5625,8.5 L7.6875,8.5 C7.61875,8.5 7.5625,8.44375 7.5625,8.375 L7.5625,7.625 C7.5625,7.55625 7.61875,7.5 7.6875,7.5 L10.5625,7.5 C10.63125,7.5 10.6875,7.55625 10.6875,7.625 L10.6875,8.375 Z M10.6875,6.125 C10.6875,6.19375 10.63125,6.25 10.5625,6.25 L7.6875,6.25 C7.61875,6.25 7.5625,6.19375 7.5625,6.125 L7.5625,5.375 C7.5625,5.30625 7.61875,5.25 7.6875,5.25 L10.5625,5.25 C10.63125,5.25 10.6875,5.30625 10.6875,5.375 L10.6875,6.125 Z" id="形状"></path>
                </g>
            </g>
        </g>
    </g>
</svg>