<?xml version="1.0" encoding="UTF-8"?>
<svg width="16px" height="16px" viewBox="0 0 16 16" version="1.1" xmlns="http://www.w3.org/2000/svg" xmlns:xlink="http://www.w3.org/1999/xlink">
    <title>evm</title>
    <g id="4.11--2.0对齐" stroke="none" stroke-width="1" fill="none" fill-rule="evenodd">
        <g id="首页备份-2" transform="translate(-385.000000, -596.000000)" fill="#0983FF" fill-rule="nonzero">
            <g id="evm" transform="translate(385.000000, 596.000000)">
                <path d="M0.0999897647,8.49821337 L4.58313698,8.49821337 C4.74705461,11.2833078 5.82071509,13.9328229 7.6336441,16 L7.6123348,15.9771312 C3.5308748,15.7799432 0.25175616,12.5544302 0.000819597761,8.49004595 C0.0335765597,8.49562551 0.0667580601,8.49835826 0.0999897647,8.49821337 L0.0999897647,8.49821337 Z M15.9991804,8.48922919 C15.748452,12.5554151 12.4669168,15.7819202 8.38356726,15.9771312 C10.1842024,13.9124043 11.2504866,11.2726902 11.4127651,8.49903012 L15.8959123,8.49821337 L15.9770515,8.49249617 L15.9991804,8.48922919 Z M10.4243418,8.49821337 C10.2816908,10.8188019 9.43576103,13.0416274 7.99836082,14.8728943 C6.56096062,13.0416274 5.71503087,10.8188019 5.57237989,8.49821337 L10.4243418,8.49821337 Z M8.38356726,0.0228687979 C12.4725302,0.218385679 15.7564637,3.45324002 16,7.52547218 C15.965754,7.51851617 15.9308596,7.51523051 15.8959123,7.51567125 L11.4127651,7.51567125 C11.253765,4.72567635 10.1792849,2.07126084 8.36225797,0 L8.38356726,0.0228687979 Z M7.61315438,0.0228687979 C5.80842126,2.09086268 4.74213707,4.73547728 4.58313698,7.51567125 L0.099170167,7.51567125 C0.0659447528,7.51568216 0.0327764216,7.51841384 0,7.52383869 C0.242456912,3.47668103 3.48956178,0.252787719 7.55168527,0.026135774 L7.61315438,0.0228687979 Z M7.99836082,1.12710566 C9.43863913,2.96213778 10.2850013,5.19019074 10.4251614,7.51567125 L5.57074071,7.51567125 C5.71113717,5.19010142 6.55778848,2.96203971 7.99836082,1.12710566 L7.99836082,1.12710566 Z" id="形状"></path>
            </g>
        </g>
    </g>
</svg>