<?xml version="1.0" encoding="UTF-8"?>
<svg width="53px" height="53px" viewBox="0 0 53 53" version="1.1" xmlns="http://www.w3.org/2000/svg" xmlns:xlink="http://www.w3.org/1999/xlink">
    <title>编组 11</title>
    <g id="页面-1" stroke="none" stroke-width="1" fill="none" fill-rule="evenodd">
        <g id="账户详情" transform="translate(-361.000000, -135.000000)">
            <g id="编组-11" transform="translate(361.000000, 135.000000)">
                <circle id="BG" fill="#FFFFFF" cx="26.5" cy="26.5" r="26.5"></circle>
                <g id="组_7" transform="translate(11.000000, 14.000000)" fill="#1677FF" fill-rule="nonzero">
                    <path d="M30.0738141,0.928977158 C29.4235532,0.299750829 28.5433592,-0.0341551894 27.6397356,0.00559717646 L15.5512142,0.00559717646 C14.6455381,-0.0482479239 13.7601308,0.288367454 13.1185922,0.930434794 C12.4770535,1.57250214 12.1407153,2.4586391 12.1945161,3.36506155 L12.1945161,23.5344536 C12.1570219,24.7597794 12.7887781,25.9084335 13.8432595,26.5321858 C14.8977409,27.1559381 16.2078363,27.1559381 17.2623177,26.5321858 C18.3167991,25.9084335 18.9485553,24.7597794 18.9110611,23.5344536 L18.9110611,8.40740957 C18.8448756,7.94475769 19.000277,7.47792742 19.3304852,7.14744709 C19.6606934,6.81696676 20.1271392,6.66143736 20.5894101,6.72767739 L27.6397356,6.72767739 C28.9956037,6.69431117 30.2057288,5.86781677 30.7310392,4.61637092 C31.2563496,3.36492507 30.9990715,1.92145377 30.0738141,0.928977158 L30.0738141,0.928977158 Z M7.91204952,0.928977158 C7.26178861,0.299750829 6.3815947,-0.0341551894 5.47797109,0.00559717647 L3.4626927,0.00559717647 C2.23837591,-0.0319279387 1.09066764,0.600348893 0.467428989,1.6556993 C-0.155809663,2.71104971 -0.155809663,4.02222485 0.467428989,5.07757526 C1.09066764,6.13292567 2.23837591,6.7652025 3.4626927,6.72767739 L5.47797109,6.72767739 C6.83383912,6.69431117 8.04396428,5.86781677 8.56927464,4.61637092 C9.09458501,3.36492507 8.83730693,1.92145377 7.91204952,0.928977158 L7.91204952,0.928977158 Z" id="路径_65"></path>
                </g>
            </g>
        </g>
    </g>
</svg>