<?xml version="1.0" encoding="UTF-8"?>
<svg width="135px" height="33px" viewBox="0 0 135 33" version="1.1" xmlns="http://www.w3.org/2000/svg" xmlns:xlink="http://www.w3.org/1999/xlink">
    <title>组 5886</title>
    <g id="页面-1" stroke="none" stroke-width="1" fill="none" fill-rule="evenodd">
        <g id="首页" transform="translate(-360.000000, -13.000000)" fill-rule="nonzero">
            <g id="组-5886" transform="translate(360.000000, 13.000000)">
                <g id="TOPScan" transform="translate(47.740561, 4.003402)" fill="#000000" font-family="Alibaba-PuHuiTi-R, Alibaba PuHuiTi" font-size="21" font-weight="normal">
                    <text>
                        <tspan x="0" y="22">TOPScan</tspan>
                    </text>
                </g>
                <g id="组_5885" fill="#1677FF">
                    <path d="M32.4845607,30.5914018 C32.6675607,30.4314018 32.9015607,30.2524018 32.9735607,30.3124018 C33.1292114,30.7587784 33.0175143,31.2548218 32.6855607,31.5914018 C32.3375607,31.9024018 32.0155607,32.1744018 31.6095607,32.5014018 C31.9157526,32.191255 32.0189219,31.7339745 31.8755607,31.3224018 C31.8835607,31.1224018 32.4755607,30.5964018 32.4855607,30.5914018" id="路径_10"></path>
                    <path d="M22.4255607,26.9114018 C23.0055607,27.0354018 22.7875607,27.8504018 22.4255607,28.1004018 C22.3451275,28.1573224 22.2490968,28.1880523 22.1505607,28.1884018 C21.0405607,28.1084018 19.8915607,28.0694018 18.7345607,28.0734018 C18.8299143,27.648872 18.8230595,27.2077637 18.7145607,26.7864018 C19.9715607,26.7864018 21.2145607,26.8244018 22.4225607,26.9114018" id="路径_11"></path>
                    <path d="M31.1295607,29.3954018 C31.2745607,29.2514018 31.5475607,29.0164018 31.7465607,29.0724018 C32.1009381,29.2732303 32.4195875,29.5313938 32.6895607,29.8364018 C32.7985607,30.1744018 31.7385607,30.9824018 31.6135607,30.8844018 C31.3644217,30.6048026 31.0708015,30.3682846 30.7445607,30.1844018 C30.5655607,29.9844018 31.1245607,29.4054018 31.1305607,29.3994018" id="路径_12"></path>
                    <path d="M29.9365607,28.9324018 C29.9785607,28.8824018 30.3545607,28.4414018 30.6305607,28.5214018 C30.7638941,28.5767351 30.8942274,28.6337351 31.0215607,28.6924018 C31.3215607,28.8804018 30.6365607,29.7284018 30.2125607,29.8324018 C30.1682453,29.8481126 30.1198761,29.8481126 30.0755607,29.8324018 C29.9595607,29.7790684 29.8395607,29.7264018 29.7155607,29.6744018 C29.5155607,29.5644018 29.7475607,29.1624018 29.9365607,28.9344018" id="路径_13"></path>
                    <path d="M23.4355607,27.5234018 C23.5302846,27.2636657 23.7662617,27.0818154 24.0415607,27.0564018 C25.9251106,27.236941 27.786377,27.6020266 29.5985607,28.1464018 C29.9785607,28.3654018 29.3415607,29.2054018 28.9195607,29.3214018 C28.8685944,29.332066 28.8161989,29.3340942 28.7645607,29.3274018 C27.0943381,28.8251551 25.3787335,28.4885322 23.6425607,28.3224018 C23.1655607,28.1964018 23.4315607,27.5304018 23.4345607,27.5224018" id="路径_14"></path>
                    <path d="M31.9935607,32.2404018 C32.0935607,32.1594018 32.1835607,32.0774018 32.2755607,31.9944018 C31.9105607,32.2944018 31.4295607,32.7134018 31.0525607,33.0034018 C31.2965607,32.8114018 31.6585607,32.5244018 31.9925607,32.2404018" id="路径_15"></path>
                    <path d="M16.5925607,27.4104018 C16.5615778,27.2390286 16.6006597,27.06239 16.7010456,26.9200826 C16.8014315,26.7777753 16.9547243,26.6817029 17.1265607,26.6534018 C17.8515607,26.6754018 18.0075607,27.7164018 17.6165607,28.1124018 C17.2425607,28.4904018 16.6405607,28.0774018 16.5925607,27.4124018 M15.5925607,27.3384018 C15.7165607,28.2904018 16.5295607,29.5594018 17.5725607,29.4634018 C19.0625607,29.1534018 19.2475607,26.4024018 17.8355607,25.5384018 C16.7495607,24.8734018 15.3805607,25.7064018 15.5915607,27.3384018" id="路径_16"></path>
                    <path d="M33.1725607,24.0984018 C33.3005607,23.8834018 33.5075607,23.6384018 33.7725607,23.6984018 C34.0907968,23.8373737 34.401855,23.9922353 34.7045607,24.1624018 C35.0175688,24.3359974 35.3147122,24.53677 35.5925607,24.7624018 C35.3161967,25.1808766 35.0715144,25.6194328 34.8605607,26.0744018 C34.5944656,25.8584113 34.3100568,25.666017 34.0105607,25.4994018 C33.7214813,25.3366576 33.4244436,25.1884725 33.1205607,25.0554018 C32.7675607,24.8064018 33.1695607,24.1034018 33.1735607,24.0974018" id="路径_17"></path>
                    <path d="M16.0025607,22.0694018 C16.01456,21.7528519 16.256665,21.4928762 16.5715607,21.4584018 C18.5055607,21.3864018 20.4505607,21.4064018 22.3275607,21.5104018 C22.1567962,21.9756105 22.1055634,22.4762477 22.1785607,22.9664018 C20.3845607,22.8664018 18.5255607,22.8474018 16.6785607,22.9164018 C15.9705607,22.8594018 16.0045607,22.0784018 16.0045607,22.0704018" id="路径_18"></path>
                    <path d="M10.6235607,22.5944018 C10.5735128,22.2939191 10.7636375,22.0056796 11.0595607,21.9334018 L11.3015607,21.9004018 C12.3305607,21.7614018 13.3855607,21.6544018 14.4515607,21.5764018 C14.746114,21.6052262 14.9998496,21.7962709 15.108967,22.0713815 C15.2180844,22.3464922 15.1642785,22.6595173 14.9695607,22.8824018 C14.8807256,22.9632425 14.7688409,23.0142899 14.6495607,23.0284018 C13.6295607,23.1034018 12.6215607,23.2064018 11.6375607,23.3384018 L11.4055607,23.3694018 C10.7255607,23.3804018 10.6245607,22.6014018 10.6235607,22.5934018" id="路径_19"></path>
                    <path d="M29.9275607,23.1094018 C30.0282347,22.8322288 30.2937117,22.6494875 30.5885607,22.6544018 C31.2435607,22.8164018 31.8585607,22.9924018 32.4275607,23.1834018 C32.9275607,23.4564018 32.4585607,24.4384018 32.0125607,24.5644018 C31.9537762,24.575814 31.8933453,24.575814 31.8345607,24.5644018 C31.2905607,24.3824018 30.7025607,24.2134018 30.0765607,24.0594018 C29.6565607,23.8814018 29.8325607,23.2994018 29.9275607,23.1084018" id="路径_20"></path>
                    <path d="M25.7425607,23.1954018 C25.9409725,22.770821 26.0339398,22.304612 26.0135607,21.8364018 C26.9275607,21.9484018 27.8135607,22.0834018 28.6465607,22.2364018 C29.2625607,22.4444018 28.9465607,23.3584018 28.5385607,23.5934018 C28.4422654,23.6486767 28.3309721,23.6721253 28.2205607,23.6604018 C27.4205607,23.5124018 26.5775607,23.3834018 25.7035607,23.2764018 L25.7435607,23.1934018" id="路径_21"></path>
                    <path d="M8.35556075,23.0844018 C8.29656075,22.8544018 8.29556075,22.4394018 8.66656075,22.3374018 C8.90722741,22.2887351 9.15356075,22.2417351 9.40556075,22.1964018 C10.0305607,22.1264018 10.4055607,23.0964018 10.0515607,23.4964018 C9.99197308,23.5629894 9.91226305,23.6082872 9.82456075,23.6254018 C9.58389408,23.6687351 9.34822741,23.7137351 9.11756075,23.7604018 C8.72356075,23.8114018 8.43456075,23.3984018 8.35456075,23.0894018" id="路径_22"></path>
                    <path d="M35.6205607,25.6604018 C35.7745607,25.4074018 36.0725607,25.0124018 36.2075607,25.1384018 C36.4125607,25.5144018 35.5695607,26.8314018 35.3075607,26.7774018 C35.1275607,26.7414018 35.3335607,26.1364018 35.6245607,25.6604018 M35.2555607,25.3164018 C34.9225607,25.9024018 34.0555607,27.6554018 34.4555607,28.0164018 C35.2325607,28.3104018 37.2875607,24.8164018 36.8985607,23.8614018 C36.7105607,23.4004018 35.9735607,24.0524018 35.2565607,25.3154018" id="路径_23"></path>
                    <path d="M23.3705607,22.2224018 C23.4366255,21.7950075 23.797338,21.4750273 24.2295607,21.4604018 C24.9805607,21.5754018 25.0035607,22.6604018 24.4295607,23.1124018 C23.8845607,23.5434018 23.2535607,23.0744018 23.3565607,22.3124018 C23.3565607,22.2844018 23.3665607,22.2474018 23.3725607,22.2204018 M22.1725607,22.1414018 C22.0415607,23.1414018 22.4725607,24.6354018 23.8235607,24.6844018 C25.7555607,24.5594018 26.7865607,21.5534018 25.3145607,20.3364018 C24.1385607,19.3654018 22.4055607,20.3604018 22.1725607,22.1364018" id="路径_24"></path>
                    <path d="M30.0785607,17.1904018 C30.1398668,16.8911171 30.4082457,16.6797951 30.7135607,16.6904018 C32.2452912,16.9925849 33.7459551,17.4351184 35.1965607,18.0124018 C35.0219164,18.4949274 34.9178431,19.0001375 34.8875607,19.5124018 C33.4638414,18.9451178 31.990974,18.5099524 30.4875607,18.2124018 C29.8675607,17.9914018 30.0735607,17.1934018 30.0765607,17.1854018" id="路径_25"></path>
                    <path d="M24.5705607,16.4424018 C24.6369054,16.1149301 24.925439,15.8799993 25.2595607,15.8813955 C26.4705607,15.9974018 27.6415607,16.1464018 28.7525607,16.3254018 C29.0336143,16.4436563 29.2286443,16.704774 29.2622713,17.0078325 C29.2958984,17.3108911 29.1628543,17.6084114 28.9145607,17.7854018 C28.8095699,17.8480198 28.6871529,17.8750287 28.5655607,17.8624018 C27.4755607,17.6854018 26.3265607,17.5394018 25.1385607,17.4264018 C24.4015607,17.2664018 24.5685607,16.4514018 24.5705607,16.4434018" id="路径_26"></path>
                    <path d="M13.9415607,15.7614018 C14.2614925,15.7829142 14.5369837,15.9949825 14.6396301,16.2987634 C14.7422765,16.6025443 14.651875,16.9382464 14.4105607,17.1494018 C14.302986,17.2372258 14.1725077,17.2924014 14.0345607,17.3084018 C12.8685607,17.3944018 11.7155607,17.5084018 10.5905607,17.6634018 C9.65722741,17.7894018 8.77789408,17.9327351 7.95256075,18.0934018 C7.99733653,17.5733904 7.92524361,17.0499479 7.74156075,16.5614018 C8.58089408,16.3980684 9.47722741,16.2520684 10.4305607,16.1234018 C11.5775607,15.9694018 12.7525607,15.8494018 13.9415607,15.7624018" id="路径_28"></path>
                    <path d="M38.3175607,21.2264018 C38.4265607,20.8264018 38.4645607,20.8144018 38.4795607,20.8074018 L38.4885607,20.8314018 C38.5100299,21.0018028 38.5022515,21.1746185 38.4655607,21.3424018 C38.3455607,21.8134018 38.2025607,22.4424018 38.0655607,22.9114018 C38.128444,22.7083811 38.1471965,22.4942625 38.1205607,22.2834018 C38.1557716,21.9258377 38.2227017,21.5721119 38.3205607,21.2264018" id="路径_29"></path>
                    <path d="M38.1975607,20.0764018 C38.3315607,20.4124018 38.0795607,21.5254018 37.8605607,21.5654018 L37.8315607,21.5414018 C37.5875861,21.1867922 37.2829079,20.8780517 36.9315607,20.6294018 C37.1241662,20.1558863 37.2415831,19.6551777 37.2795607,19.1454018 C37.6369691,19.3994741 37.9467217,19.7146431 38.1945607,20.0764018" id="路径_30"></path>
                    <path d="M35.7855607,18.9914018 C35.8635607,18.6994018 36.0775607,18.2414018 36.3855607,18.3724018 C36.9375607,18.7444018 36.5735607,20.2104018 36.1075607,20.2624018 C35.7755607,20.2994018 35.6075607,19.6454018 35.7835607,18.9914018 M35.0085607,18.6424018 C34.7705607,19.7064018 34.8035607,21.3694018 35.6205607,21.7344018 C36.9965607,22.0944018 37.7595607,18.4564018 36.9285607,17.1754018 C36.3285607,16.2544018 35.3795607,16.9804018 35.0085607,18.6424018" id="路径_32"></path>
                    <path d="M5.45156075,17.7794018 C5.42356075,17.4924018 5.49856075,16.9084018 5.97356075,16.7534018 C6.69956075,16.6294018 7.03656075,17.8064018 6.61656075,18.4044018 C6.24756075,18.9294018 5.59056075,18.6284018 5.46356075,17.8764018 C5.46356075,17.8474018 5.45356075,17.8084018 5.45156075,17.7764018 M4.46156075,17.9024018 C4.60656075,19.2624018 5.55656075,20.4744018 6.73856075,20.1094018 C8.61256075,19.2934018 8.16156075,15.8014018 6.53856075,15.2434018 C5.34856075,14.8344018 4.28256075,16.2014018 4.46356075,17.9024018" id="路径_33"></path>
                    <path d="M4.72356075,11.9384018 C4.76966787,11.6183609 4.9726846,11.3425433 5.26456075,11.2034018 C6.4953807,10.8807764 7.74161435,10.6201153 8.99856075,10.4224018 C8.83451574,10.9091615 8.81575203,11.4331552 8.94456075,11.9304018 C7.68123352,12.1296384 6.42866731,12.3919664 5.19156075,12.7164018 C4.67256075,12.7774018 4.69156075,12.1164018 4.72456075,11.9394018" id="路径_34"></path>
                    <path d="M31.3245607,12.2994018 C31.4116265,11.8255267 31.3845456,11.3377273 31.2455607,10.8764018 C32.5100044,11.1435585 33.7532973,11.5025092 34.9655607,11.9504018 C35.5425607,12.2674018 35.5655607,13.3444018 35.2135607,13.4714018 C35.1583535,13.4847274 35.100768,13.4847274 35.0455607,13.4714018 C33.8266886,13.0213201 32.5767329,12.6603704 31.3055607,12.3914018 C31.3115607,12.3654018 31.3195607,12.3304018 31.3245607,12.3044018" id="路径_36"></path>
                    <path d="M1.52856075,13.1554018 C1.55700466,12.8598025 1.69549111,12.585685 1.91656075,12.3874018 C2.45530229,12.1333823 3.00783215,11.9096995 3.57156075,11.7174018 C4.11656075,11.6174018 4.03656075,12.6064018 3.74656075,13.0174018 C3.68504761,13.1148905 3.5949481,13.1910211 3.48856075,13.2354018 C2.92209754,13.4288948 2.36689751,13.6539128 1.82556075,13.9094018 C1.47656075,14.0014018 1.49556075,13.3834018 1.52556075,13.1594018" id="路径_37"></path>
                    <path d="M0.0825607469,14.1844018 C0.0964671869,13.8769287 0.193588005,13.5789994 0.363560747,13.3224018 C0.471560747,13.2374018 0.585560747,13.1534018 0.708560747,13.0694018 C0.952560747,12.9364018 0.992560747,13.6234018 0.833560747,14.1694018 C0.806203007,14.3296975 0.728020998,14.4769462 0.610560747,14.5894018 C0.487560747,14.6734018 0.372560747,14.7574018 0.263560747,14.8434018 C0.0855607469,14.9554018 0.0505607469,14.5154018 0.0815607469,14.1824018" id="路径_38"></path>
                    <path d="M35.9975607,12.9624018 C35.9975607,12.9074018 36.0305607,12.4294018 36.3185607,12.5404018 C36.981321,12.8605492 37.591073,13.2804282 38.1265607,13.7854018 C38.4825431,14.1174388 38.7167248,14.5593907 38.7915607,15.0404018 C38.8245607,15.5404018 38.8915607,16.2014018 38.8995607,16.7004018 C38.8805607,15.9004018 38.2255607,15.0794018 36.8655607,14.3064018 C36.7182274,14.2230684 36.5645607,14.1410684 36.4045607,14.0604018 C36.1212101,13.7666758 35.9736336,13.3678206 35.9975607,12.9604018" id="路径_39"></path>
                    <path d="M10.1985607,10.8844018 C10.2579756,10.4093795 10.6201189,10.0285815 11.0915607,9.94540177 C11.9375607,9.88940177 12.1745607,10.8564018 11.6575607,11.4704018 C11.4673597,11.7568671 11.1153774,11.8897453 10.7833179,11.8004405 C10.4512584,11.7111358 10.2134114,11.4196277 10.1925607,11.0764018 C10.1897022,11.0123178 10.1920432,10.9481075 10.1995607,10.8844018 M8.86656075,11.0844018 C8.76874518,11.7375678 8.99837232,12.3970689 9.48069912,12.8482392 C9.96302592,13.2994095 10.6363704,13.4845514 11.2815607,13.3434018 C13.5135607,12.7044018 13.9515607,9.71840177 12.4125607,8.77040177 C10.9935607,7.89540177 9.00556075,9.19340177 8.86656075,11.0844018" id="路径_40"></path>
                    <path d="M28.7075607,11.0464018 C28.6944093,10.8524794 28.7670155,10.6625535 28.9061757,10.5268579 C29.0453358,10.3911624 29.2370315,10.3233665 29.4305607,10.3414018 C29.7954779,10.4459816 30.0790013,10.7339885 30.1778432,11.1005015 C30.276685,11.4670145 30.1764147,11.8585236 29.9135607,12.1324018 C29.4005607,12.4884018 28.6675607,11.8324018 28.7085607,11.0464018 M27.4465607,10.7124018 C27.3815607,11.8854018 28.1045607,13.6124018 29.6315607,13.7984018 C31.6315607,13.8384018 31.9085607,11.0204018 30.4835607,9.56540177 C30.0380901,8.95101102 29.2365423,8.71075221 28.526565,8.97880488 C27.8165876,9.24685755 27.3738291,9.9569055 27.4455607,10.7124018" id="路径_42"></path>
                    <path d="M37.3805607,9.53940177 C37.3335607,9.42240177 37.2875607,9.30440177 37.2365607,9.18940177 L37.4275607,9.63940177 L37.7815607,10.5694018 L37.7715607,10.5424018 C37.6985607,10.3484018 37.5285607,9.90840177 37.3795607,9.54240177" id="路径_43"></path>
                    <path d="M18.6865607,5.74240177 C18.8063463,5.37014056 18.8021356,4.96906603 18.6745607,4.59940177 C20.3095607,4.59340177 21.9325607,4.64840177 23.5005607,4.76140177 C24.2515607,4.88540177 24.3875607,5.65440177 23.9835607,5.90440177 C23.8757378,5.9627211 23.7539989,5.99038903 23.6315607,5.98440177 C22.0165607,5.86840177 20.3455607,5.81140177 18.6615607,5.81740177 C18.6695607,5.79540177 18.6795607,5.76540177 18.6865607,5.74340177" id="路径_44"></path>
                    <path d="M35.5375607,7.91540177 C35.5065607,7.80840177 35.4205607,7.46740177 35.6375607,7.57540177 C36.0989991,7.83702752 36.5139422,8.17323957 36.8655607,8.57040177 C37.1288546,8.98821419 37.3211235,9.4467534 37.4345607,9.92740177 L37.4205607,9.92740177 L37.3935607,9.90340177 C37.0316576,9.49461818 36.604544,9.14860206 36.1295607,8.87940177 C35.8550686,8.61130498 35.6525073,8.27840287 35.5405607,7.91140177" id="路径_45"></path>
                    <path d="M33.9985607,7.27240177 C33.9425607,7.07240177 33.9185607,6.77240177 34.1825607,6.86140177 C34.3578941,6.93406844 34.5275607,7.00840177 34.6915607,7.08440177 C35.1535607,7.33140177 35.5215607,8.29740177 35.2805607,8.39140177 C35.2385249,8.40279316 35.193708,8.39741514 35.1555607,8.37640177 C34.9868941,8.29840177 34.8122274,8.22206844 34.6315607,8.14740177 C34.3228641,7.94066053 34.0983307,7.63028656 33.9985607,7.27240177" id="路径_46"></path>
                    <path d="M25.0735607,5.36840177 C25.0825607,5.24140177 25.1505607,4.94540177 25.6035607,4.95040177 C28.0558913,5.18579125 30.4791839,5.66140638 32.8385607,6.37040177 C33.4465607,6.63940177 33.7035607,7.54340177 33.4075607,7.64740177 C33.3541326,7.65762537 33.2990797,7.65557371 33.2465607,7.64140177 C30.8171924,6.91108765 28.3218233,6.42172736 25.7965607,6.18040177 C25.3888247,6.12452414 25.0820096,5.78084032 25.0725607,5.36940177" id="路径_47"></path>
                    <path d="M15.7545607,5.19640177 C15.8532665,4.78851638 16.2149664,4.49874537 16.6345607,4.49140177 C16.9552867,4.45049418 17.263473,4.63021612 17.3858121,4.92950147 C17.5081511,5.22878682 17.4141052,5.57292946 17.1565607,5.76840177 C16.5995607,6.27540177 15.6885607,5.95740177 15.7435607,5.27440177 C15.745573,5.24819518 15.7492471,5.22214279 15.7545607,5.19640177 M14.4395607,5.15040177 C14.1855607,6.26740177 15.0395607,7.43040177 16.6715607,7.31140177 C18.8125607,6.99340177 19.3945607,4.77740177 18.0605607,3.76740177 C17.4183019,3.34794896 16.6139359,3.2616721 15.897329,3.53537201 C15.1807221,3.80907192 14.6386724,4.40959701 14.4395607,5.15040177" id="路径_48"></path>
                    <path d="M31.9455607,2.96940177 C31.8055607,2.75840177 31.8395607,2.71440177 31.8545607,2.69439804 C31.885196,2.69424036 31.9156338,2.69931332 31.9445607,2.70940177 C32.2385607,2.83940177 32.5105607,2.97440177 32.7585607,3.11540177 C33.0320746,3.26776517 33.2917316,3.44376975 33.5345607,3.64140177 C33.8085607,3.96340177 34.0605607,4.27240177 34.4045607,4.70640177 C34.1466598,4.4967716 33.8709459,4.31006244 33.5805607,4.14840177 C33.3004329,3.99041198 33.012388,3.84689022 32.7175607,3.71840177 C32.4137753,3.52155628 32.1515016,3.26709644 31.9455607,2.96940177" id="路径_49"></path>
                    <path d="M16.3085607,1.12440177 C16.4270055,0.898064445 16.6611055,0.755987325 16.9165607,0.755401771 C18.6075607,0.692401771 20.3075607,0.709401771 21.9475607,0.801401771 C21.8976275,1.11048447 21.9589274,1.42725981 22.1205607,1.69540177 C20.3815607,1.59540177 18.5795607,1.57940177 16.7875607,1.64640177 C16.2215607,1.62240177 16.2525607,1.25240177 16.3085607,1.12440177" id="路径_50"></path>
                    <path d="M11.4095607,1.59740177 C11.5771652,1.37187861 11.82348,1.2176641 12.0995607,1.16540177 L12.3115607,1.13640177 C13.2115607,1.01540177 14.1325607,0.921401771 15.0655607,0.852401771 C15.6215607,0.852401771 15.5845607,1.28240177 15.3525607,1.51140177 C15.2069064,1.64587309 15.0217134,1.72970097 14.8245607,1.75040177 C13.8365607,1.82240177 12.8595607,1.92240177 11.9055607,2.05040177 L11.6815607,2.08140177 C11.1635607,2.10940177 11.3155607,1.73140177 11.4105607,1.59640177" id="路径_51"></path>
                    <path d="M28.9945607,2.06740177 C28.9295607,1.92240177 28.9075607,1.75840177 29.1675607,1.79640177 C29.7395607,1.93740177 30.2775607,2.09640177 30.7745607,2.25840177 C31.3145607,2.48840177 31.7815607,3.17640177 31.5995607,3.25040177 C31.5587247,3.25790437 31.51663,3.25445398 31.4775607,3.24040177 C30.9505607,3.06340177 30.3775607,2.90040177 29.7775607,2.75040177 C29.44293,2.62501324 29.1655737,2.38179311 28.9975607,2.06640177" id="路径_52"></path>
                    <path d="M27.4705607,1.43340177 C28.0595607,1.59240177 28.4095607,2.17340177 28.2035607,2.33340177 C28.1339641,2.37134811 28.0530604,2.38305785 27.9755607,2.36640177 C27.1995607,2.22340177 26.3825607,2.09840177 25.5355607,1.99440177 C25.5158616,1.65883521 25.3869798,1.33891321 25.1685607,1.08340177 C25.9685607,1.18340177 26.7375607,1.29940177 27.4685607,1.43440177" id="路径_53"></path>
                    <path d="M9.29256075,2.02740177 C9.46904205,1.78411282 9.72063162,1.60561073 10.0085607,1.51940177 C10.2192274,1.4767351 10.4345607,1.4357351 10.6545607,1.39640177 C11.0415607,1.34340177 11.0035607,1.65740177 10.8045607,1.90640177 C10.6376144,2.11447193 10.4072625,2.26230443 10.1485607,2.32740177 C9.91522741,2.37006844 9.68689408,2.41340177 9.46356075,2.45740177 C9.10056075,2.51340177 9.14556075,2.24040177 9.29256075,2.02840177" id="路径_54"></path>
                    <path d="M34.2395607,4.38740177 C34.1395607,4.27140177 34.0475607,4.15540177 33.9475607,4.04240177 L34.0285607,4.13440177 C34.3285607,4.50040177 34.7285607,4.97940177 35.0125607,5.35740177 C34.9465607,5.27040177 34.5845607,4.80440177 34.2395607,4.38640177 M33.9005607,4.07140177 C34.4605607,4.75440177 34.8075607,5.21140177 35.8365607,6.57140177 L35.8565607,6.59740177 C35.3146879,5.72967712 34.7033517,4.90731618 34.0285607,4.13840177 C33.7095607,3.79740177 33.2945607,3.33840177 32.9625607,3.00640177 L32.9625607,3.00640177 C33.1985607,3.24640177 33.5125607,3.60640177 33.8955607,4.07140177" id="路径_55"></path>
                    <path d="M23.0365607,1.24340177 C23.0135607,1.07240177 23.0955607,0.788401771 23.5505607,0.810401771 C24.2445607,0.899401771 24.6345607,1.57040177 24.2895607,1.83940177 C23.9145607,2.13140177 23.1055607,1.74740177 23.0365607,1.23940177 M21.9365607,1.16740177 C22.231177,2.2182296 23.1902165,2.94374606 24.2815607,2.94140744 C25.7055607,2.91540177 25.8565607,1.75840177 24.9815607,0.865401771 C23.7815607,-0.349598229 21.9305607,-0.267598229 21.9285607,1.00040177 C21.9290913,1.05626352 21.933099,1.11203807 21.9405607,1.16740177" id="路径_56"></path>
                    <g id="组_7" transform="translate(15.808900, 8.393626)">
                        <path d="M9.55066114,0.294776054 C9.34415518,0.0951146817 9.06462849,-0.0108378682 8.77766114,0.00177605399 L4.93866114,0.00177605399 C4.65104198,-0.0153096688 4.36985965,0.0915025944 4.16612367,0.29523858 C3.96238768,0.498974566 3.85557542,0.780156893 3.87266114,1.06777605 L3.87266114,7.46777605 C3.86075395,7.85658722 4.06138329,8.22106952 4.39625915,8.4189939 C4.73113501,8.61691829 5.14718726,8.61691829 5.48206313,8.4189939 C5.81693899,8.22106952 6.01756833,7.85658722 6.00566114,7.46777605 L6.00566114,2.66777605 C5.98464235,2.52097084 6.03399377,2.37283976 6.13885931,2.26797422 C6.24372485,2.16310869 6.39185592,2.11375727 6.53866114,2.13477605 L8.77766114,2.13477605 C9.20824956,2.12418854 9.59255383,1.86193154 9.75937874,1.46483215 C9.92620365,1.06773275 9.84449883,0.609701277 9.55066114,0.294776054 L9.55066114,0.294776054 Z M2.51266114,0.294776054 C2.30615518,0.0951146817 2.02662849,-0.0108378682 1.73966114,0.00177605399 L1.09966114,0.00177605399 C0.710849969,-0.0101311337 0.346367675,0.190498201 0.148443289,0.525374066 C-0.0494810964,0.86024993 -0.0494810964,1.27630218 0.148443289,1.61117804 C0.346367675,1.94605391 0.710849969,2.14668324 1.09966114,2.13477605 L1.73966114,2.13477605 C2.17024956,2.12418854 2.55455383,1.86193154 2.72137874,1.46483215 C2.88820365,1.06773275 2.80649883,0.609701277 2.51266114,0.294776054 L2.51266114,0.294776054 Z" id="路径_65"></path>
                    </g>
                </g>
            </g>
        </g>
    </g>
</svg>