<?xml version="1.0" encoding="UTF-8"?>
<svg width="16px" height="16px" viewBox="0 0 16 16" version="1.1" xmlns="http://www.w3.org/2000/svg" xmlns:xlink="http://www.w3.org/1999/xlink">
    <title>奖牌排名</title>
    <g id="页面-1" stroke="none" stroke-width="1" fill="none" fill-rule="evenodd">
        <g id="矿工详情页备份-3" transform="translate(-946.000000, -401.000000)" fill="#000000" fill-rule="nonzero">
            <g id="编组" transform="translate(359.000000, 310.000000)">
                <g id="奖牌排名" transform="translate(587.000000, 91.000000)">
                    <rect id="矩形" opacity="0" x="0" y="0" width="16" height="16"></rect>
                    <path d="M13.2100741,9.70192592 C13.8641836,11.2610177 14.4939882,12.8301953 15.0992593,14.4088889 C14.9659259,14.5345185 14.9333333,14.6074074 14.8675556,14.6328889 C14.8362289,14.6446887 14.8015075,14.6436236 14.770963,14.6299259 L11.8008889,13.3025185 L10.4859259,15.666963 C10.4289436,15.7692179 10.3170997,15.8283386 10.2005121,15.8178329 C10.0839244,15.8073272 9.98445113,15.7291647 9.94666667,15.6183704 L8.75792592,12.1185185 C10.6660741,12.2382222 12.1493333,11.4328889 13.2100741,9.70192592 L13.2100741,9.70192592 Z M2.79585186,9.664 C3.82696297,11.4263704 5.30903705,12.2441481 7.24207408,12.1185185 L6.05333333,15.6183704 C6.01554887,15.7291647 5.91607556,15.8073272 5.79948792,15.8178329 C5.68290027,15.8283386 5.57105638,15.7692179 5.51407408,15.666963 L4.19851852,13.3025185 L1.23377778,14.6281481 C1.20152235,14.6425373 1.16488869,14.6436022 1.13185186,14.6311111 C1.06251853,14.605037 1.02755556,14.528 0.901925922,14.4011852 C1.41985184,13.0281482 2.05096295,11.4488889 2.79585186,9.664 Z M7.88444444,0 C10.9404444,0 13.4186667,2.51437037 13.4186667,5.61540741 C13.4186667,8.71703703 10.9404445,11.2308148 7.88385186,11.2308148 C4.82785186,11.2308148 2.35022222,8.71703703 2.35022222,5.61540741 C2.35022222,2.51437037 4.82785186,0 7.88444444,0 Z M7.64562962,2.27555556 L7.61777778,2.32118519 L6.77155556,4.06103703 L4.86992592,4.34133333 C4.76814059,4.35619807 4.6813481,4.42279063 4.64063813,4.51725709 C4.59992816,4.61172355 4.61112665,4.72054497 4.67022222,4.80474073 L4.70518519,4.84562963 L6.08355556,6.20859259 L5.75940741,8.12859259 C5.74210195,8.23053602 5.77919342,8.33412709 5.85727313,8.40191722 C5.93535283,8.46970735 6.04312502,8.49188939 6.14162963,8.46044444 L6.19081481,8.4397037 L7.88444444,7.53659259 L9.57807408,8.4397037 C9.66922815,8.48825534 9.77908615,8.48583941 9.86801769,8.43332745 C9.95694924,8.38081549 10.0121208,8.2857854 10.0136296,8.18251852 L10.0094815,8.12918519 L9.68474073,6.20918519 L11.0637037,4.84562963 C11.1370171,4.77342604 11.1676201,4.66835573 11.144544,4.56807758 C11.121468,4.46779942 11.0480175,4.38667393 10.9505185,4.35377778 L10.8983704,4.34192592 L8.99733333,4.06103703 L8.15051852,2.32118519 C8.10503606,2.2280311 8.01417646,2.16542124 7.91093269,2.15609052 C7.80768893,2.14675981 7.70707642,2.19206527 7.64562962,2.27555556 L7.64562962,2.27555556 Z" id="形状"></path>
                </g>
            </g>
        </g>
    </g>
</svg>