<?xml version="1.0" encoding="UTF-8"?>
<svg width="26px" height="26px" viewBox="0 0 26 26" version="1.1" xmlns="http://www.w3.org/2000/svg" xmlns:xlink="http://www.w3.org/1999/xlink">
    <title>切片</title>
    <g id="页面-1" stroke="none" stroke-width="1" fill="none" fill-rule="evenodd">
        <g id="交易" transform="translate(-994.000000, -164.000000)">
            <g id="编组" transform="translate(360.000000, 153.000000)">
                <g id="Icon/Search" transform="translate(634.000000, 11.000000)">
                    <rect id="矩形" fill="#000000" fill-rule="nonzero" opacity="0" x="0" y="0" width="26" height="26"></rect>
                    <path d="M23.0953125,21.6962891 L16.5013672,15.1023437 C17.5246094,13.7794922 18.078125,12.1621094 18.078125,10.4609375 C18.078125,8.42460937 17.2833984,6.51523438 15.8462891,5.07558594 C14.4091797,3.6359375 12.4947266,2.84375 10.4609375,2.84375 C8.42714844,2.84375 6.51269531,3.63847656 5.07558594,5.07558594 C3.6359375,6.51269531 2.84375,8.42460937 2.84375,10.4609375 C2.84375,12.4947266 3.63847656,14.4091797 5.07558594,15.8462891 C6.51269531,17.2859375 8.42460937,18.078125 10.4609375,18.078125 C12.1621094,18.078125 13.7769531,17.5246094 15.0998047,16.5039062 L21.69375,23.0953125 C21.775,23.1765625 21.9070312,23.1765625 21.9882812,23.0953125 L23.0953125,21.9908203 C23.1765625,21.9095703 23.1765625,21.7775391 23.0953125,21.6962891 Z M14.4828125,14.4828125 C13.40625,15.5568359 11.9792969,16.1484375 10.4609375,16.1484375 C8.94257813,16.1484375 7.515625,15.5568359 6.4390625,14.4828125 C5.36503906,13.40625 4.7734375,11.9792969 4.7734375,10.4609375 C4.7734375,8.94257813 5.36503906,7.51308594 6.4390625,6.4390625 C7.515625,5.36503906 8.94257813,4.7734375 10.4609375,4.7734375 C11.9792969,4.7734375 13.4087891,5.3625 14.4828125,6.4390625 C15.5568359,7.515625 16.1484375,8.94257813 16.1484375,10.4609375 C16.1484375,11.9792969 15.5568359,13.4087891 14.4828125,14.4828125 Z" id="形状" fill="#FFFFFF"></path>
                </g>
            </g>
        </g>
    </g>
</svg>