<?xml version="1.0" encoding="UTF-8"?>
<svg width="24px" height="25px" viewBox="0 0 24 25" version="1.1" xmlns="http://www.w3.org/2000/svg" xmlns:xlink="http://www.w3.org/1999/xlink">
    <title>huobi</title>
    <g id="页面-1" stroke="none" stroke-width="1" fill="none" fill-rule="evenodd">
        <g id="首页" transform="translate(-1056.000000, -2603.000000)">
            <g id="副本副本币价" transform="translate(0.000000, 2563.000000)">
                <g id="telegram" transform="translate(1057.474000, 42.194000)">
                    <g id="XMLID_497_" transform="translate(0.790297, 1.999632)" fill="#FFFFFF" fill-rule="nonzero">
                        <path d="M0.346703208,8.2283682 L4.89270321,9.9283682 L6.65270321,15.5833682 C6.70528881,15.753484 6.83906272,15.8862897 7.00955599,15.9376383 C7.18004925,15.9889868 7.36491605,15.9521482 7.50270321,15.8393682 L10.0367032,13.7753682 C10.3025369,13.5585054 10.6810709,13.5478309 10.9587032,13.7493682 L15.5287032,17.0653682 C15.675783,17.1719041 15.866805,17.196717 16.0362217,17.1312927 C16.2056384,17.0658684 16.3304029,16.9191069 16.3677032,16.7413682 L19.7157032,0.641368195 C19.7540896,0.449894628 19.6853028,0.252695941 19.5361551,0.126638024 C19.3870073,0.00058010775 19.1811037,-0.0343863494 18.9987032,0.0353681953 L0.341703208,7.2273682 C0.134785442,7.30785162 -0.00109557975,7.50757095 6.65615758e-06,7.72958743 C0.00112236702,7.9516039 0.138991757,8.14995585 0.346703208,8.2283682 Z M6.36870321,9.0213682 L15.2527032,3.5533682 C15.3204244,3.51236328 15.4081629,3.5289829 15.4561963,3.5919143 C15.5042296,3.65484571 15.4971184,3.74386081 15.4397032,3.7983682 L8.10770321,10.6093682 C7.85018172,10.8486872 7.68370856,11.1699698 7.63670321,11.5183682 L7.38670321,13.3683682 C7.37096506,13.4750973 7.28315957,13.5565446 7.17555055,13.564231 C7.06794153,13.5719173 6.96945119,13.5037768 6.93870321,13.4003682 L5.97770321,10.0273682 C5.86807754,9.64231328 6.02781621,9.23132326 6.36870321,9.0213682 Z" id="路径_24031"></path>
                    </g>
                    <path d="M0,0 L21.307,0 L21.307,21.292 L0,21.292 L0,0 Z" id="Rectangle-4" stroke="#979797" stroke-width="2.4" opacity="0.01" stroke-dasharray="2.88"></path>
                </g>
            </g>
        </g>
    </g>
</svg>