<?xml version="1.0" encoding="UTF-8"?>
<svg width="12px" height="12px" viewBox="0 0 12 12" version="1.1" xmlns="http://www.w3.org/2000/svg" xmlns:xlink="http://www.w3.org/1999/xlink">
    <title>编组 15备份 10</title>
    <g id="页面-1" stroke="none" stroke-width="1" fill="none" fill-rule="evenodd">
        <g id="交易备份-转账" transform="translate(-805.000000, -741.000000)">
            <g id="编组-15备份-10" transform="translate(805.000000, 741.000000)">
                <g id="编组备份-9" fill="#FFE040">
                    <circle id="椭圆形" cx="6" cy="6" r="6"></circle>
                </g>
                <g id="编组" transform="translate(2.142857, 3.000000)" fill="#FFFFFF" fill-rule="nonzero">
                    <g id="TOP">
                        <path d="M7.10844064,0.236287354 C6.94304504,0.0762233762 6.71905551,-0.00870206 6.48911486,0.00147051949 L3.68289444,0.00147051949 C3.4523736,-0.0124565915 3.22693268,0.0730512505 3.06363262,0.236351315 C2.90033256,0.399651379 2.81482471,0.625092296 2.82875182,0.855613136 L2.82875182,5.98046884 C2.82066749,6.29092711 2.98167489,6.58132556 3.24927313,6.73893544 C3.51687137,6.89654533 3.84891751,6.89654533 4.11651575,6.73893544 C4.38411399,6.58132556 4.54512139,6.29092711 4.53703706,5.98046884 L4.53703706,2.13653752 C4.51975889,2.01881561 4.559159,1.8998557 4.64329277,1.81572193 C4.72742655,1.73158815 4.84638645,1.69218804 4.96410837,1.70946621 L6.4894044,1.70946621 C6.83412172,1.7009398 7.14178184,1.49100943 7.27541674,1.17313454 C7.40905164,0.855259652 7.34380737,0.488559924 7.10873018,0.236287354 L7.10844064,0.236287354 Z M1.74008191,0.236287354 C1.57470507,0.0761938247 1.35070232,-0.00873662394 1.12075613,0.00147051949 L0.876674021,0.00147051949 C0.566215752,-0.00661381032 0.275817302,0.154393589 0.118207415,0.421991826 C-0.0394024717,0.689590064 -0.0394024717,1.02163621 0.118207415,1.28923445 C0.275817302,1.55683268 0.566215752,1.71784008 0.876674021,1.70975575 L1.12075613,1.70975575 C1.46547345,1.70122934 1.77313356,1.49129897 1.90676847,1.17342408 C2.04040337,0.855549192 1.9751591,0.488849463 1.74008191,0.236576894 L1.74008191,0.236287354 Z" id="路径_28"></path>
                    </g>
                </g>
            </g>
        </g>
    </g>
</svg>