<?xml version="1.0" encoding="UTF-8"?>
<svg width="25px" height="25px" viewBox="0 0 25 25" version="1.1" xmlns="http://www.w3.org/2000/svg" xmlns:xlink="http://www.w3.org/1999/xlink">
    <title>huobi-2</title>
    <g id="页面-1" stroke="none" stroke-width="1" fill="none" fill-rule="evenodd">
        <g id="首页" transform="translate(-1094.000000, -2603.000000)">
            <g id="副本副本币价" transform="translate(0.000000, 2563.000000)">
                <g id="twitter" transform="translate(1095.689000, 42.194000)">
                    <path d="M21.307,3.995 C20.5243104,4.34172237 19.6940989,4.56924683 18.844,4.67 C19.7389945,4.13453606 20.409171,3.29237371 20.73,2.3 C19.886824,2.79883266 18.9650506,3.15083785 18.004,3.341 C16.6755988,1.92601638 14.5629372,1.57857292 12.8513467,2.49360651 C11.1397562,3.40864011 10.2552132,5.35841952 10.694,7.249 C7.24505281,7.07671074 4.03127908,5.4487428 1.852,2.77 C0.712570553,4.72925395 1.2938016,7.23682573 3.179,8.495 C2.49780902,8.4724463 1.83177715,8.2880278 1.236,7.957 L1.236,8.011 C1.23922645,10.0508098 2.67768508,11.806557 4.677,12.211 C4.3085481,12.3103725 3.92861716,12.3608058 3.547,12.361 C3.27568989,12.3609961 3.00504324,12.3341994 2.739,12.281 C3.30009509,14.0269185 4.90847978,15.2234635 6.742,15.259 C5.22327955,16.45043 3.34828838,17.0970273 1.418,17.095 C1.07616394,17.0945146 0.734625342,17.0748169 0.395,17.036 C2.35609143,18.2975567 4.63917674,18.9672756 6.971,18.965 C10.2141132,18.9883628 13.3312322,17.7106424 15.6248948,15.4177315 C17.9185575,13.1248206 19.1972997,10.0081206 19.175,6.765 L19.161,6.21 C20.004494,5.60763175 20.7316182,4.85712841 21.307,3.995 L21.307,3.995 Z" id="Shape" fill="#FFFFFF" fill-rule="nonzero"></path>
                    <path d="M0,0 L21.307,0 L21.307,21.292 L0,21.292 L0,0 Z" id="Rectangle-4-2" stroke="#979797" stroke-width="2.4" opacity="0.01" stroke-dasharray="2.88"></path>
                </g>
            </g>
        </g>
    </g>
</svg>