<?xml version="1.0" encoding="UTF-8"?>
<svg width="16px" height="16px" viewBox="0 0 16 16" version="1.1" xmlns="http://www.w3.org/2000/svg" xmlns:xlink="http://www.w3.org/1999/xlink">
    <title>calendar-check-filled</title>
    <g id="页面-1" stroke="none" stroke-width="1" fill="none" fill-rule="evenodd">
        <g id="交易备份-转账" transform="translate(-385.000000, -302.000000)" fill-rule="nonzero">
            <g id="calendar-check-filled" transform="translate(385.000000, 302.000000)">
                <rect id="矩形" fill="#000000" opacity="0" x="0" y="0" width="16" height="16"></rect>
                <path d="M14.5,3.5 L12,3.5 L12,2.625 C12,2.55625 11.94375,2.5 11.875,2.5 L11,2.5 C10.93125,2.5 10.875,2.55625 10.875,2.625 L10.875,3.5 L8.5625,3.5 L8.5625,2.625 C8.5625,2.55625 8.50625,2.5 8.4375,2.5 L7.5625,2.5 C7.49375,2.5 7.4375,2.55625 7.4375,2.625 L7.4375,3.5 L5.125,3.5 L5.125,2.625 C5.125,2.55625 5.06875,2.5 5,2.5 L4.125,2.5 C4.05625,2.5 4,2.55625 4,2.625 L4,3.5 L1.5,3.5 C1.2234375,3.5 1,3.7234375 1,4 L1,13 C1,13.2765625 1.2234375,13.5 1.5,13.5 L14.5,13.5 C14.7765625,13.5 15,13.2765625 15,13 L15,4 C15,3.7234375 14.7765625,3.5 14.5,3.5 Z M6.625,10.75 C6.625,10.81875 6.56875,10.875 6.5,10.875 L3.625,10.875 C3.55625,10.875 3.5,10.81875 3.5,10.75 L3.5,10 C3.5,9.93125 3.55625,9.875 3.625,9.875 L6.5,9.875 C6.56875,9.875 6.625,9.93125 6.625,10 L6.625,10.75 Z M6.625,8.625 C6.625,8.69375 6.56875,8.75 6.5,8.75 L3.625,8.75 C3.55625,8.75 3.5,8.69375 3.5,8.625 L3.5,7.875 C3.5,7.80625 3.55625,7.75 3.625,7.75 L6.5,7.75 C6.56875,7.75 6.625,7.80625 6.625,7.875 L6.625,8.625 Z M12.4765625,7.1984375 L9.8984375,10.771875 C9.7984375,10.909375 9.5953125,10.909375 9.4953125,10.771875 L7.7109375,8.3 C7.6515625,8.2171875 7.7109375,8.1015625 7.8125,8.1015625 L8.6703125,8.1015625 C8.75,8.1015625 8.825,8.140625 8.871875,8.2046875 L9.696875,9.346875 L11.3171875,7.1015625 C11.3640625,7.0359375 11.4390625,6.9984375 11.51875,6.9984375 L12.375,6.9984375 C12.4765625,7 12.5359375,7.115625 12.4765625,7.1984375 L12.4765625,7.1984375 Z" id="形状" fill="#333333"></path>
            </g>
        </g>
    </g>
</svg>