<?xml version="1.0" encoding="UTF-8"?>
<svg width="16px" height="16px" viewBox="0 0 16 16" version="1.1" xmlns="http://www.w3.org/2000/svg" xmlns:xlink="http://www.w3.org/1999/xlink">
    <title>user-filling</title>
    <g id="页面-1" stroke="none" stroke-width="1" fill="none" fill-rule="evenodd">
        <g id="首页" transform="translate(-386.000000, -1636.000000)" fill="#000000" fill-rule="nonzero">
            <g id="编组-9" transform="translate(359.000000, 537.000000)">
                <g id="user-filling" transform="translate(27.000000, 1099.000000)">
                    <rect id="矩形" opacity="0" x="0" y="0" width="16" height="16"></rect>
                    <path d="M8,1.16666667 C4.23333333,1.16666667 1.16666667,4.23333333 1.16666667,8 C1.16666667,11.7666667 4.23333333,14.8333333 8,14.8333333 C11.7666667,14.8333333 14.8333333,11.7666667 14.8333333,8 C14.8333333,4.23333333 11.7666667,1.16666667 8,1.16666667 Z M8,3.66666667 C9.1,3.66666667 10,4.56666667 10,5.66666667 C10,6.76666667 9.1,7.66666667 8,7.66666667 C6.9,7.66666667 6,6.76666667 6,5.66666667 C6,4.56666667 6.9,3.66666667 8,3.66666667 Z M11.7,11.6 C11.3333333,12.1 9.86666667,13.1666667 8,13.1666667 C6.13333333,13.1666667 4.66666667,12.1 4.3,11.6 C4.16666667,11.4333333 4.13333333,11.2666667 4.16666667,11.1 C4.63333334,9.36666667 6.2,8.16666667 8,8.16666667 C9.8,8.16666667 11.3666667,9.36666667 11.8333333,11.1 C11.8666667,11.2666667 11.8333333,11.4333333 11.7,11.6 Z" id="形状"></path>
                </g>
            </g>
        </g>
    </g>
</svg>